<svg class="img-fluid" id="outputsvg" xmlns="http://www.w3.org/2000/svg" style="transform: matrix(0.769231, 0, 0, 0.769231, 0, 0); transform-origin: 50% 50%; cursor: move;" width="128" height="128" viewBox="0 0 1280 1280"><g id="l3MWahxScKl6iYrxSpKrYbe" fill="rgb(255,135,221)" style="transform: none;"><g><path id="pid02xxl6" d="M480 1254 c-214 -56 -401 -244 -455 -459 -19 -76 -19 -234 0 -310 55 -217 243 -405 460 -460 76 -19 234 -19 310 0 167 42 333 175 408 325 59 120 86 250 51 250 -10 0 -93 -75 -186 -166 -185 -181 -247 -222 -375 -246 -116 -21 -263 34 -367 138 -67 66 -106 136 -130 229 -20 74 -20 96 0 170 30 116 60 159 234 338 91 93 166 177 168 188 3 16 -3 19 -30 18 -18 0 -58 -7 -88 -15z"></path><path id="p1DTcgwkQS" d="M545 949 c-21 -5 -42 -13 -45 -17 -3 -4 -18 -12 -35 -17 -25 -9 -30 -16 -33 -48 -3 -36 -2 -37 31 -37 18 0 42 8 53 18 25 23 90 42 148 42 46 0 46 0 46 35 l0 35 -62 -1 c-35 -1 -81 -5 -103 -10z"></path></g></g><g id="l6YWDjBIFF7qfYB4yPJQuuS" fill="rgb(255,99,211)" style="transform: none;"><g><path id="pFFaqDGCM" d="M580 953 c-48 -8 -95 -26 -132 -51 -73 -48 -41 -117 71 -157 24 -8 68 -15 97 -15 l54 0 0 80 c0 64 3 80 15 80 10 0 15 11 15 35 l0 35 -47 -1 c-27 -1 -59 -4 -73 -6z"></path><path id="p10ywrQ0s5" d="M770 875 c0 -33 2 -35 35 -35 33 0 35 2 35 35 0 33 -2 35 -35 35 -33 0 -35 -2 -35 -35z"></path><path id="p9f8s7e1V" d="M970 313 l0 -37 35 34 c19 19 35 35 35 37 0 2 -16 3 -35 3 -34 0 -35 -1 -35 -37z"></path></g></g><g id="l3lV8xsW3QGWZHZrv55pY3z" fill="rgb(255,230,64)" style="transform: none;"><g><path id="pXtRJAcMZ" d="M550 1150 c-108 -16 -123 -26 -221 -129 -53 -55 -106 -122 -121 -152 -100 -199 -66 -419 88 -573 88 -88 219 -146 331 -146 l43 0 0 260 0 260 -140 0 c-120 0 -140 2 -140 15 0 19 25 69 53 107 16 21 18 30 9 41 -15 18 7 39 68 65 67 29 120 37 120 17 0 -8 6 -15 14 -15 11 0 14 26 15 130 l2 130 -38 -1 c-21 -1 -58 -5 -83 -9z m-30 -643 c0 -15 -16 -37 -41 -55 -13 -10 -21 -7 -43 14 -41 42 -34 54 29 54 39 0 55 -4 55 -13z"></path></g></g><g id="l2QNXKmFxHxvq0lt1EeoO2L" fill="rgb(255,190,61)" style="transform: none;"><g><path id="ppJAdJ8nk" d="M555 1156 c-5 -3 -27 -7 -47 -11 -29 -4 -38 -11 -38 -25 0 -22 13 -24 56 -11 16 5 48 12 72 14 l42 5 0 -113 0 -113 33 -7 c81 -18 164 -85 198 -159 31 -68 34 -66 -121 -66 -118 0 -140 -2 -140 -15 0 -8 7 -15 15 -15 13 0 15 -34 15 -245 l0 -245 28 0 c45 0 137 27 200 59 33 17 98 67 155 121 86 82 99 99 114 149 23 76 23 246 0 322 -47 158 -176 288 -331 334 -48 15 -229 30 -251 21z m315 -648 c-1 -15 -17 -37 -41 -56 -13 -10 -21 -8 -43 13 -43 40 -35 55 29 55 38 0 55 -4 55 -12z"></path><path id="pJ33S4TiP" d="M365 1058 c-28 -28 -39 -44 -25 -35 14 9 46 29 73 43 51 30 60 44 24 44 -14 0 -41 -19 -72 -52z"></path><path id="pLa6JiLap" d="M420 830 l-21 -30 30 0 c31 0 43 21 21 35 -6 4 -8 11 -5 16 15 23 -6 6 -25 -21z"></path><path id="puRKTAcR2" d="M370 751 c-16 -31 -12 -51 10 -51 16 0 20 7 20 35 0 39 -14 46 -30 16z"></path><path id="pcBkVWb5H" d="M380 539 c0 -10 8 -20 18 -22 16 -4 16 -5 0 -6 -27 -2 -22 -44 8 -75 35 -34 82 -35 118 -1 28 26 35 65 11 65 -8 0 -15 5 -15 10 0 6 7 10 15 10 8 0 15 8 15 19 0 16 -9 18 -85 18 -75 0 -85 -2 -85 -18z"></path></g></g><g id="l4Vw1Obqsnzqi1Qo8qFi2ne" fill="rgb(255,46,195)" style="transform: none;"><g><path id="p1BiztXgcT" d="M530 1139 c0 -17 5 -20 32 -17 22 2 34 9 36 21 3 14 -4 17 -32 17 -30 0 -36 -4 -36 -21z"></path><path id="pm1VQVLW9" d="M680 1141 c0 -14 9 -20 35 -23 31 -4 35 -1 35 19 0 20 -5 23 -35 23 -28 0 -35 -4 -35 -19z"></path><path id="pgLb2sO19" d="M375 1069 l-60 -61 62 40 c35 22 74 43 88 46 35 9 33 36 -3 36 -21 0 -43 -15 -87 -61z"></path><path id="pfMbPdf5d" d="M790 1118 c0 -7 20 -23 45 -35 l45 -22 0 29 c0 16 -7 30 -16 34 -28 11 -74 7 -74 -6z"></path><path id="p10rVV2zQi" d="M930 1036 c0 -4 102 -106 106 -106 2 0 4 16 4 35 0 28 -4 35 -20 35 -13 0 -20 7 -20 20 0 16 -7 20 -35 20 -19 0 -35 -2 -35 -4z"></path><path id="pGvPRKqQ9" d="M640 844 c0 -82 -1 -84 -24 -84 -38 0 -108 28 -147 59 -34 28 -36 28 -48 10 -13 -22 -7 -39 15 -39 8 0 14 -4 14 -10 0 -5 14 -10 30 -10 19 0 30 -5 30 -14 0 -19 32 -26 127 -26 94 0 175 25 212 64 l23 25 -25 23 c-61 56 -102 77 -162 82 l-45 5 0 -85z"></path><path id="p17TPyd9KL" d="M1083 835 c25 -52 47 -59 47 -16 0 47 -10 61 -40 61 l-29 0 22 -45z"></path><path id="peOKkmAGn" d="M1118 715 c3 -26 9 -35 23 -35 15 0 19 7 19 35 0 30 -3 35 -23 35 -20 0 -23 -4 -19 -35z"></path><path id="pPlzihbOB" d="M1118 565 c-4 -31 -1 -35 19 -35 20 0 23 5 23 35 0 28 -4 35 -19 35 -14 0 -20 -9 -23 -35z"></path><path id="pVNBD94ns" d="M1083 445 c-20 -42 -20 -45 -4 -45 25 0 51 32 51 63 0 41 -22 32 -47 -18z"></path><path id="p13a9zTRan" d="M1033 358 c-24 -32 -24 -41 0 -19 15 14 27 26 27 28 0 8 -19 2 -27 -9z"></path></g></g><g id="lzQNah2J8lftdXSg1VNM4Q" fill="rgb(255,151,57)" style="transform: none;"><g><path id="p16JtyPhpK" d="M495 1145 c-27 -8 -53 -14 -57 -15 -5 0 -8 -9 -8 -20 0 -22 18 -22 88 1 32 11 45 13 90 18 6 0 12 8 12 16 0 19 -56 19 -125 0z"></path><path id="pu8w6vMrq" d="M640 1146 c0 -13 45 -30 66 -25 5 2 29 -3 54 -10 25 -7 53 -15 62 -16 10 -2 23 -9 30 -15 7 -6 35 -25 62 -42 61 -40 84 -63 124 -124 17 -27 36 -55 42 -62 6 -7 13 -20 15 -30 1 -9 9 -37 16 -62 16 -59 18 -185 2 -232 -7 -20 -14 -48 -17 -62 -2 -14 -9 -31 -15 -38 -25 -29 -60 -88 -52 -88 4 0 28 22 54 49 55 58 77 128 77 250 0 80 -25 211 -40 211 -4 0 -10 13 -13 29 -3 16 -12 35 -20 42 -7 8 -16 22 -20 32 -3 9 -13 17 -22 17 -8 0 -15 8 -15 18 0 23 -19 42 -42 42 -10 0 -18 7 -18 15 0 9 -8 19 -17 22 -10 4 -24 13 -32 20 -7 8 -26 17 -42 20 -16 3 -29 9 -29 13 0 11 -123 40 -170 40 -28 0 -40 -4 -40 -14z"></path><path id="pvQrqXoRT" d="M370 1065 c-34 -36 -20 -40 21 -5 22 19 29 29 18 30 -8 0 -26 -11 -39 -25z"></path><path id="pFwGRbhbT" d="M838 851 c1 -2 -6 -13 -15 -23 -16 -18 -16 -19 4 -24 13 -4 23 -17 26 -34 4 -15 13 -35 22 -43 8 -9 15 -29 15 -46 0 -24 4 -31 20 -31 13 0 20 7 20 20 0 34 -39 124 -68 155 -15 17 -26 29 -24 26z"></path><path id="pwpE0bfnr" d="M411 817 c-27 -33 -61 -117 -61 -152 0 -18 5 -25 20 -25 14 0 20 7 20 23 0 12 9 42 20 66 11 24 20 51 20 61 0 10 8 20 18 22 16 3 16 4 2 18 -14 14 -18 13 -39 -13z"></path><path id="p8no0BLdq" d="M730 539 c0 -11 7 -19 15 -19 8 0 15 -9 15 -20 0 -11 -7 -20 -15 -20 -23 0 -18 -18 11 -45 36 -34 83 -33 118 1 28 29 35 64 11 64 -8 0 -15 5 -15 10 0 6 7 10 15 10 8 0 15 8 15 19 0 16 -9 18 -85 18 -76 0 -85 -2 -85 -18z"></path><path id="p1D08iFz8R" d="M488 510 c-3 -36 -1 -40 19 -40 20 0 23 5 23 40 0 33 -4 40 -19 40 -15 0 -20 -9 -23 -40z"></path></g></g><g id="l1O1zUF46iyNtd929SN9wx7" fill="rgb(191,36,147)" style="transform: none;"><g><path id="p7YbVzqNB" d="M594 1274 c-11 -3 -72 -57 -135 -121 -105 -106 -110 -114 -66 -89 226 128 509 61 652 -154 53 -80 85 -181 85 -270 0 -73 -29 -183 -62 -236 -13 -21 -28 -46 -32 -54 -5 -8 47 40 115 108 l124 122 -2 75 c-2 101 -17 163 -65 265 -57 120 -168 231 -288 288 -47 22 -107 45 -135 51 -61 13 -163 20 -191 15z"></path><path id="pxJENRTac" d="M430 809 c0 -19 5 -29 15 -29 8 0 15 -4 15 -8 0 -13 48 -32 80 -32 20 0 30 5 30 15 0 8 -6 15 -13 15 -7 0 -39 15 -70 34 l-57 35 0 -30z"></path><path id="pu2LO3b4f" d="M815 820 c-25 -27 -117 -60 -170 -60 -39 0 -45 -3 -45 -21 0 -21 3 -22 70 -15 72 6 150 31 150 47 0 5 6 9 14 9 7 0 19 7 26 15 10 12 10 18 0 30 -16 20 -23 19 -45 -5z"></path></g></g><g id="lZUl9A5coIpLWDyWhOgFP8" fill="rgb(191,0,0)" style="transform: none;"><g><path id="pL4gXSB5C" d="M416 821 c-21 -23 -52 -98 -60 -143 l-7 -38 161 0 160 0 0 61 c0 33 -4 58 -9 55 -21 -13 -135 18 -181 49 -45 31 -50 32 -64 16z"></path><path id="pZfym50ea" d="M840 808 c0 -34 3 -38 25 -38 31 0 32 11 0 47 l-24 28 -1 -37z"></path><path id="pEmnMFRLB" d="M880 738 c0 -61 13 -98 32 -98 18 0 19 5 13 43 -8 48 -21 77 -35 77 -6 0 -10 -10 -10 -22z"></path><path id="pcH5Hnx7i" d="M750 511 c0 -22 -5 -41 -10 -43 -12 -4 25 -48 40 -48 11 0 16 43 11 93 -2 28 -7 37 -22 37 -15 0 -19 -7 -19 -39z"></path></g></g><g id="l2jeCiat9oDzxzWhoXUq2YM" fill="rgb(43,43,43)" style="transform: none;"><g><path id="p1Fl1TO740" d="M383 504 c6 -59 34 -88 83 -88 49 0 84 39 84 95 0 35 -3 39 -25 39 -19 0 -25 -5 -25 -23 0 -33 -23 -62 -44 -54 -11 4 -16 18 -16 42 0 33 -2 35 -31 35 -32 0 -32 0 -26 -46z"></path><path id="pTTKEXUOF" d="M838 513 c-4 -50 -34 -58 -51 -14 -13 34 -22 38 -43 17 -22 -23 -16 -52 17 -80 40 -34 74 -33 110 3 28 28 41 81 19 81 -5 0 -10 7 -10 15 0 8 -9 15 -19 15 -16 0 -20 -8 -23 -37z"></path></g></g><g id="l5RTOgCAynqwEOHOKQmPxBM" fill="rgb(64,12,49)" style="transform: none;"><g><path id="p1GfuralMp" d="M806 809 c-36 -27 -68 -39 -138 -54 -26 -5 -28 -8 -28 -60 l0 -55 144 0 145 0 -6 37 c-6 42 -47 136 -66 151 -8 6 -24 1 -51 -19z"></path></g></g><g id="l56p90sApUbSLGmo5qMTZAq" fill="rgb(0,0,0)" style="transform: none;"><g><path id="p1FQ5Rh6Gq" d="M730 521 c0 -48 18 -81 52 -95 62 -26 118 21 118 99 0 20 -5 25 -25 25 -20 0 -25 -5 -25 -24 0 -39 -11 -56 -35 -56 -24 0 -35 17 -35 56 0 19 -5 24 -25 24 -21 0 -25 -5 -25 -29z"></path></g></g></svg>